<mxfile host="app.diagrams.net" agent="Mozilla/5.0 (Windows NT 10.0; Win64; x64) AppleWebKit/537.36 (KHTML, like Gecko) Chrome/133.0.0.0 Safari/537.36 Edg/133.0.0.0" version="26.0.16">
  <diagram id="R2lEEEUBdFMjLlhIrx00" name="Page-1">
    <mxGraphModel dx="903" dy="498" grid="1" gridSize="10" guides="1" tooltips="1" connect="1" arrows="1" fold="1" page="1" pageScale="1" pageWidth="850" pageHeight="1100" math="0" shadow="0" extFonts="Permanent Marker^https://fonts.googleapis.com/css?family=Permanent+Marker">
      <root>
        <mxCell id="0" />
        <mxCell id="1" parent="0" />
        <mxCell id="H1vahDbu5VQTVYL9gDHy-7" value="" style="rounded=1;absoluteArcSize=1;html=1;arcSize=10;" vertex="1" parent="1">
          <mxGeometry x="90" y="180" width="340" height="100" as="geometry" />
        </mxCell>
        <mxCell id="H1vahDbu5VQTVYL9gDHy-8" value="&lt;b&gt;core&lt;br&gt;&lt;/b&gt;for configuration and initial setup&lt;b&gt;&lt;/b&gt;" style="html=1;shape=mxgraph.er.anchor;whiteSpace=wrap;" vertex="1" parent="H1vahDbu5VQTVYL9gDHy-7">
          <mxGeometry width="123.63636363636363" height="100" as="geometry" />
        </mxCell>
        <mxCell id="H1vahDbu5VQTVYL9gDHy-10" value="&lt;b&gt;RabbitMQ&lt;/b&gt;" style="rounded=1;absoluteArcSize=1;html=1;arcSize=10;whiteSpace=wrap;points=[];strokeColor=inherit;fillColor=inherit;" vertex="1" parent="H1vahDbu5VQTVYL9gDHy-7">
          <mxGeometry x="240" y="5" width="87" height="90" as="geometry" />
        </mxCell>
        <mxCell id="H1vahDbu5VQTVYL9gDHy-17" value="API" style="whiteSpace=wrap;html=1;align=center;" vertex="1" parent="H1vahDbu5VQTVYL9gDHy-7">
          <mxGeometry x="10.303030303030303" y="-20" width="103.03030303030303" height="40" as="geometry" />
        </mxCell>
        <mxCell id="H1vahDbu5VQTVYL9gDHy-9" value="&lt;b&gt;Postgres&lt;/b&gt;" style="rounded=1;absoluteArcSize=1;html=1;arcSize=10;whiteSpace=wrap;points=[];strokeColor=inherit;fillColor=inherit;" vertex="1" parent="H1vahDbu5VQTVYL9gDHy-7">
          <mxGeometry x="130.0012121212121" y="5" width="102" height="90" as="geometry" />
        </mxCell>
        <mxCell id="H1vahDbu5VQTVYL9gDHy-11" value="" style="rounded=1;absoluteArcSize=1;html=1;arcSize=10;" vertex="1" parent="1">
          <mxGeometry x="520" y="130" width="150" height="100" as="geometry" />
        </mxCell>
        <mxCell id="H1vahDbu5VQTVYL9gDHy-12" value="&lt;b&gt;chat_listener&lt;/b&gt;" style="html=1;shape=mxgraph.er.anchor;whiteSpace=wrap;" vertex="1" parent="H1vahDbu5VQTVYL9gDHy-11">
          <mxGeometry width="90" height="100" as="geometry" />
        </mxCell>
        <mxCell id="H1vahDbu5VQTVYL9gDHy-13" value="Twitch" style="rounded=1;absoluteArcSize=1;html=1;arcSize=10;whiteSpace=wrap;points=[];strokeColor=inherit;fillColor=inherit;" vertex="1" parent="H1vahDbu5VQTVYL9gDHy-11">
          <mxGeometry x="90" y="5" width="50" height="90" as="geometry" />
        </mxCell>
        <mxCell id="H1vahDbu5VQTVYL9gDHy-14" value="" style="rounded=1;absoluteArcSize=1;html=1;arcSize=10;" vertex="1" parent="1">
          <mxGeometry x="520" y="250" width="150" height="100" as="geometry" />
        </mxCell>
        <mxCell id="H1vahDbu5VQTVYL9gDHy-15" value="&lt;b&gt;chat_listener&lt;/b&gt;" style="html=1;shape=mxgraph.er.anchor;whiteSpace=wrap;" vertex="1" parent="H1vahDbu5VQTVYL9gDHy-14">
          <mxGeometry width="100" height="100" as="geometry" />
        </mxCell>
        <mxCell id="H1vahDbu5VQTVYL9gDHy-16" value="Youtube" style="rounded=1;absoluteArcSize=1;html=1;arcSize=10;whiteSpace=wrap;points=[];strokeColor=inherit;fillColor=inherit;" vertex="1" parent="H1vahDbu5VQTVYL9gDHy-14">
          <mxGeometry x="90" y="5" width="50" height="90" as="geometry" />
        </mxCell>
        <mxCell id="H1vahDbu5VQTVYL9gDHy-29" style="edgeStyle=orthogonalEdgeStyle;rounded=0;orthogonalLoop=1;jettySize=auto;html=1;exitX=0;exitY=0.5;exitDx=0;exitDy=0;entryX=0.996;entryY=0.16;entryDx=0;entryDy=0;entryPerimeter=0;" edge="1" parent="1" source="H1vahDbu5VQTVYL9gDHy-11" target="H1vahDbu5VQTVYL9gDHy-10">
          <mxGeometry relative="1" as="geometry" />
        </mxCell>
        <mxCell id="H1vahDbu5VQTVYL9gDHy-33" style="edgeStyle=orthogonalEdgeStyle;rounded=0;orthogonalLoop=1;jettySize=auto;html=1;exitX=0;exitY=0.5;exitDx=0;exitDy=0;entryX=1;entryY=0.86;entryDx=0;entryDy=0;entryPerimeter=0;" edge="1" parent="1" source="H1vahDbu5VQTVYL9gDHy-14" target="H1vahDbu5VQTVYL9gDHy-10">
          <mxGeometry relative="1" as="geometry" />
        </mxCell>
        <mxCell id="H1vahDbu5VQTVYL9gDHy-34" value="" style="rounded=1;absoluteArcSize=1;html=1;arcSize=10;" vertex="1" parent="1">
          <mxGeometry x="400" y="390" width="120" height="100" as="geometry" />
        </mxCell>
        <mxCell id="H1vahDbu5VQTVYL9gDHy-35" value="&lt;b&gt;speech_parser&lt;/b&gt;" style="html=1;shape=mxgraph.er.anchor;whiteSpace=wrap;" vertex="1" parent="H1vahDbu5VQTVYL9gDHy-34">
          <mxGeometry width="120" height="100" as="geometry" />
        </mxCell>
        <mxCell id="H1vahDbu5VQTVYL9gDHy-39" style="edgeStyle=orthogonalEdgeStyle;rounded=0;orthogonalLoop=1;jettySize=auto;html=1;exitX=0.5;exitY=0;exitDx=0;exitDy=0;entryX=0.798;entryY=0.996;entryDx=0;entryDy=0;entryPerimeter=0;" edge="1" parent="1" source="H1vahDbu5VQTVYL9gDHy-34" target="H1vahDbu5VQTVYL9gDHy-10">
          <mxGeometry relative="1" as="geometry" />
        </mxCell>
        <mxCell id="H1vahDbu5VQTVYL9gDHy-45" value="" style="edgeStyle=orthogonalEdgeStyle;rounded=0;orthogonalLoop=1;jettySize=auto;html=1;" edge="1" parent="1" source="H1vahDbu5VQTVYL9gDHy-40" target="H1vahDbu5VQTVYL9gDHy-10">
          <mxGeometry relative="1" as="geometry">
            <Array as="points">
              <mxPoint x="360" y="170" />
              <mxPoint x="360" y="170" />
            </Array>
          </mxGeometry>
        </mxCell>
        <mxCell id="H1vahDbu5VQTVYL9gDHy-40" value="&lt;code data-end=&quot;555&quot; data-start=&quot;542&quot;&gt;&lt;b&gt;chat_engine&lt;/b&gt;&lt;/code&gt;" style="rounded=1;absoluteArcSize=1;html=1;arcSize=10;whiteSpace=wrap;points=[];strokeColor=inherit;fillColor=inherit;" vertex="1" parent="1">
          <mxGeometry x="323.0012121212121" y="20" width="102" height="90" as="geometry" />
        </mxCell>
        <mxCell id="H1vahDbu5VQTVYL9gDHy-41" value="" style="rounded=1;absoluteArcSize=1;html=1;arcSize=10;" vertex="1" parent="1">
          <mxGeometry x="230" y="390" width="120" height="100" as="geometry" />
        </mxCell>
        <mxCell id="H1vahDbu5VQTVYL9gDHy-42" value="&lt;b&gt;renderer&lt;/b&gt;&lt;div&gt;&lt;b&gt;audio/video presentation&lt;/b&gt;&lt;/div&gt;" style="html=1;shape=mxgraph.er.anchor;whiteSpace=wrap;" vertex="1" parent="H1vahDbu5VQTVYL9gDHy-41">
          <mxGeometry width="120" height="100" as="geometry" />
        </mxCell>
        <mxCell id="H1vahDbu5VQTVYL9gDHy-43" style="edgeStyle=orthogonalEdgeStyle;rounded=0;orthogonalLoop=1;jettySize=auto;html=1;exitX=0.171;exitY=1.001;exitDx=0;exitDy=0;entryX=0.5;entryY=0;entryDx=0;entryDy=0;exitPerimeter=0;" edge="1" parent="1" source="H1vahDbu5VQTVYL9gDHy-10" target="H1vahDbu5VQTVYL9gDHy-41">
          <mxGeometry relative="1" as="geometry" />
        </mxCell>
        <mxCell id="H1vahDbu5VQTVYL9gDHy-44" value="" style="edgeStyle=orthogonalEdgeStyle;rounded=0;orthogonalLoop=1;jettySize=auto;html=1;" edge="1" parent="1" source="H1vahDbu5VQTVYL9gDHy-10" target="H1vahDbu5VQTVYL9gDHy-40">
          <mxGeometry relative="1" as="geometry">
            <Array as="points">
              <mxPoint x="390" y="130" />
              <mxPoint x="390" y="130" />
            </Array>
          </mxGeometry>
        </mxCell>
      </root>
    </mxGraphModel>
  </diagram>
</mxfile>
